<mxfile host="app.diagrams.net" agent="Mozilla/5.0 (Windows NT 10.0; Win64; x64) AppleWebKit/537.36 (KHTML, like Gecko) Chrome/131.0.0.0 Safari/537.36" version="25.0.3">
  <diagram name="PÃ¡gina-1" id="YGRI4pKgH1e-FUuKfylV">
    <mxGraphModel dx="1434" dy="738" grid="1" gridSize="10" guides="1" tooltips="1" connect="1" arrows="1" fold="1" page="1" pageScale="1" pageWidth="827" pageHeight="1169" math="0" shadow="0">
      <root>
        <mxCell id="0" />
        <mxCell id="1" parent="0" />
        <mxCell id="wifFRXn1DIAoS1hL8ho9-21" value="" style="edgeStyle=orthogonalEdgeStyle;rounded=0;orthogonalLoop=1;jettySize=auto;html=1;" parent="1" source="wifFRXn1DIAoS1hL8ho9-1" target="wifFRXn1DIAoS1hL8ho9-16" edge="1">
          <mxGeometry relative="1" as="geometry" />
        </mxCell>
        <mxCell id="wifFRXn1DIAoS1hL8ho9-23" value="" style="edgeStyle=orthogonalEdgeStyle;rounded=0;orthogonalLoop=1;jettySize=auto;html=1;" parent="1" source="wifFRXn1DIAoS1hL8ho9-1" target="wifFRXn1DIAoS1hL8ho9-22" edge="1">
          <mxGeometry relative="1" as="geometry" />
        </mxCell>
        <mxCell id="wifFRXn1DIAoS1hL8ho9-1" value="grupo" style="whiteSpace=wrap;html=1;align=center;" parent="1" vertex="1">
          <mxGeometry x="180" y="160" width="100" height="40" as="geometry" />
        </mxCell>
        <mxCell id="wifFRXn1DIAoS1hL8ho9-20" value="" style="edgeStyle=orthogonalEdgeStyle;rounded=0;orthogonalLoop=1;jettySize=auto;html=1;" parent="1" source="wifFRXn1DIAoS1hL8ho9-2" target="wifFRXn1DIAoS1hL8ho9-14" edge="1">
          <mxGeometry relative="1" as="geometry" />
        </mxCell>
        <mxCell id="wifFRXn1DIAoS1hL8ho9-27" value="" style="edgeStyle=orthogonalEdgeStyle;rounded=0;orthogonalLoop=1;jettySize=auto;html=1;" parent="1" source="wifFRXn1DIAoS1hL8ho9-2" target="wifFRXn1DIAoS1hL8ho9-25" edge="1">
          <mxGeometry relative="1" as="geometry" />
        </mxCell>
        <mxCell id="wifFRXn1DIAoS1hL8ho9-2" value="modulo" style="whiteSpace=wrap;html=1;align=center;" parent="1" vertex="1">
          <mxGeometry x="600" y="320" width="100" height="40" as="geometry" />
        </mxCell>
        <mxCell id="wifFRXn1DIAoS1hL8ho9-18" value="" style="edgeStyle=orthogonalEdgeStyle;rounded=0;orthogonalLoop=1;jettySize=auto;html=1;" parent="1" source="wifFRXn1DIAoS1hL8ho9-6" target="wifFRXn1DIAoS1hL8ho9-16" edge="1">
          <mxGeometry relative="1" as="geometry" />
        </mxCell>
        <mxCell id="wifFRXn1DIAoS1hL8ho9-19" value="" style="edgeStyle=orthogonalEdgeStyle;rounded=0;orthogonalLoop=1;jettySize=auto;html=1;" parent="1" source="wifFRXn1DIAoS1hL8ho9-6" target="wifFRXn1DIAoS1hL8ho9-14" edge="1">
          <mxGeometry relative="1" as="geometry" />
        </mxCell>
        <mxCell id="wifFRXn1DIAoS1hL8ho9-6" value="profesor" style="whiteSpace=wrap;html=1;align=center;" parent="1" vertex="1">
          <mxGeometry x="600" y="160" width="100" height="40" as="geometry" />
        </mxCell>
        <mxCell id="wifFRXn1DIAoS1hL8ho9-11" value="" style="edgeStyle=orthogonalEdgeStyle;rounded=0;orthogonalLoop=1;jettySize=auto;html=1;" parent="1" source="wifFRXn1DIAoS1hL8ho9-7" edge="1">
          <mxGeometry relative="1" as="geometry">
            <mxPoint x="230" y="390" as="targetPoint" />
          </mxGeometry>
        </mxCell>
        <mxCell id="wifFRXn1DIAoS1hL8ho9-24" value="" style="edgeStyle=orthogonalEdgeStyle;rounded=0;orthogonalLoop=1;jettySize=auto;html=1;" parent="1" source="wifFRXn1DIAoS1hL8ho9-7" target="wifFRXn1DIAoS1hL8ho9-22" edge="1">
          <mxGeometry relative="1" as="geometry" />
        </mxCell>
        <mxCell id="wifFRXn1DIAoS1hL8ho9-26" value="" style="edgeStyle=orthogonalEdgeStyle;rounded=0;orthogonalLoop=1;jettySize=auto;html=1;" parent="1" source="wifFRXn1DIAoS1hL8ho9-7" target="wifFRXn1DIAoS1hL8ho9-25" edge="1">
          <mxGeometry relative="1" as="geometry" />
        </mxCell>
        <mxCell id="wifFRXn1DIAoS1hL8ho9-7" value="alumno" style="whiteSpace=wrap;html=1;align=center;" parent="1" vertex="1">
          <mxGeometry x="180" y="320" width="100" height="40" as="geometry" />
        </mxCell>
        <mxCell id="wifFRXn1DIAoS1hL8ho9-12" value="" style="edgeStyle=orthogonalEdgeStyle;rounded=0;orthogonalLoop=1;jettySize=auto;html=1;" parent="1" source="wifFRXn1DIAoS1hL8ho9-8" edge="1">
          <mxGeometry relative="1" as="geometry">
            <mxPoint x="230" y="450" as="targetPoint" />
          </mxGeometry>
        </mxCell>
        <mxCell id="wifFRXn1DIAoS1hL8ho9-8" value="direccion" style="whiteSpace=wrap;html=1;align=center;" parent="1" vertex="1">
          <mxGeometry x="180" y="480" width="100" height="40" as="geometry" />
        </mxCell>
        <mxCell id="wifFRXn1DIAoS1hL8ho9-13" value="tiene" style="shape=rhombus;perimeter=rhombusPerimeter;whiteSpace=wrap;html=1;align=center;" parent="1" vertex="1">
          <mxGeometry x="170" y="390" width="120" height="60" as="geometry" />
        </mxCell>
        <mxCell id="wifFRXn1DIAoS1hL8ho9-14" value="imparte" style="shape=rhombus;perimeter=rhombusPerimeter;whiteSpace=wrap;html=1;align=center;" parent="1" vertex="1">
          <mxGeometry x="590" y="230" width="120" height="60" as="geometry" />
        </mxCell>
        <mxCell id="wifFRXn1DIAoS1hL8ho9-16" value="tutor" style="shape=rhombus;perimeter=rhombusPerimeter;whiteSpace=wrap;html=1;align=center;" parent="1" vertex="1">
          <mxGeometry x="380" y="150" width="120" height="60" as="geometry" />
        </mxCell>
        <mxCell id="wifFRXn1DIAoS1hL8ho9-22" value="tiene" style="shape=rhombus;perimeter=rhombusPerimeter;whiteSpace=wrap;html=1;align=center;" parent="1" vertex="1">
          <mxGeometry x="170" y="230" width="120" height="60" as="geometry" />
        </mxCell>
        <mxCell id="YUG5AfU2NV_tDnMSsBFJ-3" value="" style="edgeStyle=orthogonalEdgeStyle;rounded=0;orthogonalLoop=1;jettySize=auto;html=1;" edge="1" parent="1" source="wifFRXn1DIAoS1hL8ho9-25" target="YUG5AfU2NV_tDnMSsBFJ-2">
          <mxGeometry relative="1" as="geometry" />
        </mxCell>
        <mxCell id="wifFRXn1DIAoS1hL8ho9-25" value="cursa" style="shape=rhombus;perimeter=rhombusPerimeter;whiteSpace=wrap;html=1;align=center;" parent="1" vertex="1">
          <mxGeometry x="380" y="310" width="120" height="60" as="geometry" />
        </mxCell>
        <mxCell id="wifFRXn1DIAoS1hL8ho9-28" value="n" style="text;html=1;align=center;verticalAlign=middle;resizable=0;points=[];autosize=1;strokeColor=none;fillColor=none;" parent="1" vertex="1">
          <mxGeometry x="255" y="288" width="30" height="30" as="geometry" />
        </mxCell>
        <mxCell id="wifFRXn1DIAoS1hL8ho9-29" value="1" style="text;html=1;align=center;verticalAlign=middle;resizable=0;points=[];autosize=1;strokeColor=none;fillColor=none;" parent="1" vertex="1">
          <mxGeometry x="255" y="198" width="30" height="30" as="geometry" />
        </mxCell>
        <mxCell id="wifFRXn1DIAoS1hL8ho9-30" value="1" style="text;html=1;align=center;verticalAlign=middle;resizable=0;points=[];autosize=1;strokeColor=none;fillColor=none;" parent="1" vertex="1">
          <mxGeometry x="570" y="150" width="30" height="30" as="geometry" />
        </mxCell>
        <mxCell id="wifFRXn1DIAoS1hL8ho9-31" value="1" style="text;html=1;align=center;verticalAlign=middle;resizable=0;points=[];autosize=1;strokeColor=none;fillColor=none;" parent="1" vertex="1">
          <mxGeometry x="285" y="150" width="30" height="30" as="geometry" />
        </mxCell>
        <mxCell id="wifFRXn1DIAoS1hL8ho9-32" value="1" style="text;html=1;align=center;verticalAlign=middle;resizable=0;points=[];autosize=1;strokeColor=none;fillColor=none;" parent="1" vertex="1">
          <mxGeometry x="600" y="200" width="30" height="30" as="geometry" />
        </mxCell>
        <mxCell id="wifFRXn1DIAoS1hL8ho9-33" value="m" style="text;html=1;align=center;verticalAlign=middle;resizable=0;points=[];autosize=1;strokeColor=none;fillColor=none;" parent="1" vertex="1">
          <mxGeometry x="600" y="288" width="30" height="30" as="geometry" />
        </mxCell>
        <mxCell id="wifFRXn1DIAoS1hL8ho9-34" value="n" style="text;html=1;align=center;verticalAlign=middle;resizable=0;points=[];autosize=1;strokeColor=none;fillColor=none;" parent="1" vertex="1">
          <mxGeometry x="570" y="340" width="30" height="30" as="geometry" />
        </mxCell>
        <mxCell id="wifFRXn1DIAoS1hL8ho9-36" value="m" style="text;html=1;align=center;verticalAlign=middle;resizable=0;points=[];autosize=1;strokeColor=none;fillColor=none;" parent="1" vertex="1">
          <mxGeometry x="280" y="340" width="30" height="30" as="geometry" />
        </mxCell>
        <mxCell id="wifFRXn1DIAoS1hL8ho9-37" value="1" style="text;html=1;align=center;verticalAlign=middle;resizable=0;points=[];autosize=1;strokeColor=none;fillColor=none;" parent="1" vertex="1">
          <mxGeometry x="180" y="360" width="30" height="30" as="geometry" />
        </mxCell>
        <mxCell id="wifFRXn1DIAoS1hL8ho9-38" value="1" style="text;html=1;align=center;verticalAlign=middle;resizable=0;points=[];autosize=1;strokeColor=none;fillColor=none;" parent="1" vertex="1">
          <mxGeometry x="175" y="448" width="30" height="30" as="geometry" />
        </mxCell>
        <mxCell id="wifFRXn1DIAoS1hL8ho9-39" value="&lt;ol&gt;&lt;li&gt;grupo&lt;/li&gt;&lt;li&gt;alumno/direccion&lt;/li&gt;&lt;li&gt;profesor&lt;/li&gt;&lt;li&gt;modulo&lt;/li&gt;&lt;/ol&gt;" style="whiteSpace=wrap;html=1;aspect=fixed;align=left;" parent="1" vertex="1">
          <mxGeometry x="520" y="390" width="160" height="160" as="geometry" />
        </mxCell>
        <mxCell id="wifFRXn1DIAoS1hL8ho9-43" value="NUEVA TABLA" style="text;html=1;align=center;verticalAlign=middle;resizable=0;points=[];autosize=1;strokeColor=none;fillColor=none;" parent="1" vertex="1">
          <mxGeometry x="390" y="280" width="100" height="30" as="geometry" />
        </mxCell>
        <mxCell id="YUG5AfU2NV_tDnMSsBFJ-2" value="nota" style="ellipse;whiteSpace=wrap;html=1;" vertex="1" parent="1">
          <mxGeometry x="410" y="400" width="60" height="40" as="geometry" />
        </mxCell>
      </root>
    </mxGraphModel>
  </diagram>
</mxfile>
